# xmcd CD database file
#
# Track frame offsets:
#	150
#	12532
#	43832
#
# Disc length: 2919 seconds
#
# Revision: 0
# Processed by: cddbd v1.5PL3 Copyright (c) Steve Scherf et al.
# Submitted via: CDex 1.51
#
DISCID=210b6503
DTITLE=Jan Berlin - The Ceremony of the Cave
DYEAR=2001
DGENRE=New Age
TTITLE0=Welcome
TTITLE1=Introduction to Imagery
TTITLE2=The Ceremony of the Cave
EXTD=YEAR: 2001
EXTT0=
EXTT1=
EXTT2=
PLAYORDER=
